<svg width="512" height="512" viewBox="0 0 512 512" fill="none" xmlns="http://www.w3.org/2000/svg">
  <!-- 背景圆形 -->
  <circle cx="256" cy="256" r="240" fill="url(#gradient)" stroke="#2563eb" stroke-width="8"/>
  
  <!-- 渐变定义 -->
  <defs>
    <linearGradient id="gradient" x1="0%" y1="0%" x2="100%" y2="100%">
      <stop offset="0%" style="stop-color:#3b82f6;stop-opacity:1" />
      <stop offset="100%" style="stop-color:#1d4ed8;stop-opacity:1" />
    </linearGradient>
  </defs>
  
  <!-- 笔记本图标 -->
  <rect x="140" y="120" width="232" height="280" rx="12" fill="white" stroke="#e5e7eb" stroke-width="2"/>
  
  <!-- 笔记本线条 -->
  <line x1="170" y1="160" x2="342" y2="160" stroke="#d1d5db" stroke-width="2"/>
  <line x1="170" y1="190" x2="320" y2="190" stroke="#d1d5db" stroke-width="2"/>
  <line x1="170" y1="220" x2="342" y2="220" stroke="#d1d5db" stroke-width="2"/>
  <line x1="170" y1="250" x2="300" y2="250" stroke="#d1d5db" stroke-width="2"/>
  
  <!-- AI 符号 -->
  <circle cx="256" cy="320" r="40" fill="#3b82f6"/>
  <text x="256" y="335" text-anchor="middle" fill="white" font-family="Arial, sans-serif" font-size="32" font-weight="bold">AI</text>
  
  <!-- 创意火花 -->
  <path d="M200 100 L210 85 L220 100 L235 90 L225 105 L240 115 L225 125 L235 140 L220 130 L210 145 L200 130 L185 140 L195 125 L180 115 L195 105 L185 90 Z" fill="#fbbf24"/>
  
  <path d="M320 380 L325 370 L330 380 L340 375 L335 385 L345 390 L335 395 L340 405 L330 400 L325 410 L320 400 L310 405 L315 395 L305 390 L315 385 L310 375 Z" fill="#fbbf24"/>
</svg>